<svg xmlns="http://www.w3.org/2000/svg" width="1440" height="960" viewBox="0 0 1440 960">
<defs>
  <linearGradient id="bg" x1="0" y1="0" x2="1" y2="1"><stop stop-color="#0a1424"/><stop offset="1" stop-color="#050a12"/></linearGradient>
  <linearGradient id="hero" x1="0" y1="0" x2="1" y2="1"><stop stop-color="#182942"/><stop offset="1" stop-color="#0c1422"/></linearGradient>
  <linearGradient id="accent" x1="0" y1="0" x2="1" y2="0"><stop stop-color="#4aa7ff"/><stop offset="1" stop-color="#9c7cff"/></linearGradient>
  <pattern id="grid" width="46" height="46" patternUnits="userSpaceOnUse"><path d="M46 0H0V46" fill="none" stroke="#15263a" stroke-width="1"/></pattern>
  <filter id="shadow"><feDropShadow dx="0" dy="24" stdDeviation="34" flood-color="#000" flood-opacity=".45"/></filter>
</defs>
<rect width="1440" height="960" fill="url(#bg)"/><rect width="1440" height="960" fill="url(#grid)" opacity=".55"/>
<g font-family="Inter,Segoe UI,Arial,sans-serif">
  <g transform="translate(70 54)"><rect width="44" height="44" rx="14" fill="url(#accent)"/><path d="M12 15h20M12 22h13M12 29h20" stroke="#fff" stroke-width="3" stroke-linecap="round"/><text x="58" y="29" fill="#f5f8ff" font-size="20" font-weight="800" letter-spacing="2">SNYT HOSTING</text></g>
  <g transform="translate(1170 59)"><rect width="200" height="38" rx="19" fill="#102a22" stroke="#2f8e65"/><circle cx="22" cy="19" r="5" fill="#39e58c"/><text x="38" y="25" fill="#bdf8d5" font-size="14" font-weight="700">Server online</text></g>
  <g transform="translate(70 130)" filter="url(#shadow)"><rect width="1300" height="320" rx="30" fill="url(#hero)" stroke="#263b56"/><text x="44" y="58" fill="#4de7d0" font-size="13" font-weight="800" letter-spacing="2">SNYT SUPERSERVER • APP.SNYT.XYZ</text><text x="44" y="143" fill="#f5f8ff" font-size="66" font-weight="900" letter-spacing="-3">Your web stack is ready.</text><text x="44" y="195" fill="#aab7cb" font-size="20">This domain is running through a validated PHP-FPM stack.</text><text x="44" y="226" fill="#aab7cb" font-size="20">Replace this page with your application when you are ready to deploy.</text><rect x="44" y="258" width="188" height="46" rx="13" fill="url(#accent)"/><text x="68" y="288" fill="#fff" font-size="15" font-weight="800">Open phpMyAdmin →</text><rect x="244" y="258" width="190" height="46" rx="13" fill="#101b2c" stroke="#304059"/><text x="268" y="288" fill="#dce6f4" font-size="15" font-weight="800">SuperServer project</text></g>
  <g transform="translate(70 474)">
    <g><rect width="310" height="150" rx="20" fill="#101a2b" stroke="#26364c"/><text x="22" y="34" fill="#8fa0b7" font-size="12" font-weight="800" letter-spacing="2">PHP RUNTIME</text><text x="22" y="82" fill="#f4f8ff" font-size="25" font-weight="800">PHP 8.5.8</text><text x="22" y="113" fill="#788aa2" font-size="14">fpm-fcgi • 48 extensions</text></g>
    <g transform="translate(330)"><rect width="310" height="150" rx="20" fill="#101a2b" stroke="#26364c"/><text x="22" y="34" fill="#8fa0b7" font-size="12" font-weight="800" letter-spacing="2">MEMORY</text><text x="22" y="82" fill="#f4f8ff" font-size="25" font-weight="800">877 MB / 7.2 GB</text><text x="22" y="113" fill="#788aa2" font-size="14">12.0% currently used</text><rect x="22" y="128" width="266" height="7" rx="4" fill="#202d3f"/><rect x="22" y="128" width="52" height="7" rx="4" fill="url(#accent)"/></g>
    <g transform="translate(660)"><rect width="310" height="150" rx="20" fill="#101a2b" stroke="#26364c"/><text x="22" y="34" fill="#8fa0b7" font-size="12" font-weight="800" letter-spacing="2">ROOT DISK</text><text x="22" y="82" fill="#f4f8ff" font-size="25" font-weight="800">9.8 GB / 128 GB</text><text x="22" y="113" fill="#788aa2" font-size="14">8% currently used</text><rect x="22" y="128" width="266" height="7" rx="4" fill="#202d3f"/><rect x="22" y="128" width="33" height="7" rx="4" fill="url(#accent)"/></g>
    <g transform="translate(990)"><rect width="310" height="150" rx="20" fill="#101a2b" stroke="#26364c"/><text x="22" y="34" fill="#8fa0b7" font-size="12" font-weight="800" letter-spacing="2">SYSTEM LOAD</text><text x="22" y="82" fill="#f4f8ff" font-size="25" font-weight="800">0.24</text><text x="22" y="113" fill="#788aa2" font-size="14">1m / 5m / 15m: 0.24 • 0.19 • 0.19</text></g>
  </g>
  <g transform="translate(70 646)"><rect width="820" height="250" rx="22" fill="#101a2b" stroke="#26364c"/><text x="24" y="36" fill="#f5f8ff" font-size="18" font-weight="800">Runtime details</text><g font-size="14"><text x="24" y="78" fill="#8fa0b7">Domain</text><text x="790" y="78" fill="#dce6f4" text-anchor="end" font-weight="700">app.snyt.xyz</text><line x1="24" y1="92" x2="796" y2="92" stroke="#26364c"/><text x="24" y="126" fill="#8fa0b7">Operating system</text><text x="790" y="126" fill="#dce6f4" text-anchor="end" font-weight="700">Ubuntu 26.04 LTS</text><line x1="24" y1="140" x2="796" y2="140" stroke="#26364c"/><text x="24" y="174" fill="#8fa0b7">Web server</text><text x="790" y="174" fill="#dce6f4" text-anchor="end" font-weight="700">nginx/1.28.3</text><line x1="24" y1="188" x2="796" y2="188" stroke="#26364c"/><text x="24" y="222" fill="#8fa0b7">Connection</text><text x="790" y="222" fill="#70eda8" text-anchor="end" font-weight="700">HTTPS secured</text></g></g>
  <g transform="translate(912 646)"><rect width="458" height="250" rx="22" fill="#101a2b" stroke="#26364c"/><text x="24" y="36" fill="#f5f8ff" font-size="18" font-weight="800">Deployment</text><text x="24" y="80" fill="#9eabc0" font-size="15">SuperServer validates the configured PHP-FPM</text><text x="24" y="106" fill="#9eabc0" font-size="15">runtime, SSL certificate, web server, services,</text><text x="24" y="132" fill="#9eabc0" font-size="15">and generated site configuration.</text><rect x="24" y="163" width="410" height="58" rx="13" fill="#0b1422" stroke="#27374c"/><text x="42" y="188" fill="#8fa0b7" font-size="12">DOCUMENT ROOT</text><text x="42" y="209" fill="#c6d8ff" font-size="13" font-family="monospace">/var/www/html/app.snyt.xyz</text></g>
</g></svg>
