<svg xmlns="http://www.w3.org/2000/svg" style="display:none">
<symbol id="bolt" viewBox="0 0 24 24"><path d="M13.2 1.8 4.8 13h6.4l-.7 9.2L19.2 10h-6.4l.4-8.2Z" fill="currentColor"/></symbol>
<symbol id="download" viewBox="0 0 24 24"><path d="M12 3v12m0 0 5-5m-5 5-5-5M5 21h14" fill="none" stroke="currentColor" stroke-width="2" stroke-linecap="round" stroke-linejoin="round"/></symbol>
<symbol id="github" viewBox="0 0 24 24"><path fill="currentColor" d="M12 .7a11.5 11.5 0 0 0-3.64 22.41c.58.1.79-.25.79-.56v-2.23c-3.22.7-3.9-1.37-3.9-1.37-.53-1.34-1.29-1.7-1.29-1.7-1.05-.72.08-.7.08-.7 1.17.08 1.78 1.2 1.78 1.2 1.04 1.78 2.72 1.27 3.38.97.1-.75.4-1.27.74-1.56-2.57-.29-5.28-1.29-5.28-5.74 0-1.27.46-2.3 1.2-3.12-.12-.29-.52-1.47.11-3.07 0 0 .98-.31 3.16 1.19a10.9 10.9 0 0 1 5.75 0c2.19-1.5 3.16-1.19 3.16-1.19.64 1.6.24 2.78.12 3.07.75.82 1.2 1.85 1.2 3.12 0 4.46-2.71 5.44-5.3 5.73.42.36.79 1.07.79 2.16v3.2c0 .31.21.67.8.56A11.5 11.5 0 0 0 12 .7Z"/></symbol>
<symbol id="copy" viewBox="0 0 24 24"><rect x="8" y="8" width="11" height="11" rx="2" fill="none" stroke="currentColor" stroke-width="2"/><path d="M16 8V5a2 2 0 0 0-2-2H5a2 2 0 0 0-2 2v9a2 2 0 0 0 2 2h3" fill="none" stroke="currentColor" stroke-width="2"/></symbol>
<symbol id="check" viewBox="0 0 24 24"><path d="m5 12 4 4 10-10" fill="none" stroke="currentColor" stroke-width="2.4" stroke-linecap="round" stroke-linejoin="round"/></symbol>
<symbol id="server" viewBox="0 0 24 24"><rect x="3" y="3" width="18" height="7" rx="2" fill="none" stroke="currentColor" stroke-width="2"/><rect x="3" y="14" width="18" height="7" rx="2" fill="none" stroke="currentColor" stroke-width="2"/><path d="M7 6.5h.01M7 17.5h.01M11 6.5h6M11 17.5h6" stroke="currentColor" stroke-width="2" stroke-linecap="round"/></symbol>
<symbol id="shield" viewBox="0 0 24 24"><path d="M12 2 4 5v6c0 5.2 3.4 9.3 8 11 4.6-1.7 8-5.8 8-11V5l-8-3Z" fill="none" stroke="currentColor" stroke-width="2"/><path d="m8.5 12 2.2 2.2 4.8-5" fill="none" stroke="currentColor" stroke-width="2" stroke-linecap="round" stroke-linejoin="round"/></symbol>
<symbol id="code" viewBox="0 0 24 24"><path d="m8 9-4 3 4 3m8-6 4 3-4 3m-2-9-4 12" fill="none" stroke="currentColor" stroke-width="2" stroke-linecap="round" stroke-linejoin="round"/></symbol>
<symbol id="database" viewBox="0 0 24 24"><ellipse cx="12" cy="5" rx="8" ry="3" fill="none" stroke="currentColor" stroke-width="2"/><path d="M4 5v6c0 1.7 3.6 3 8 3s8-1.3 8-3V5m-16 6v6c0 1.7 3.6 3 8 3s8-1.3 8-3v-6" fill="none" stroke="currentColor" stroke-width="2"/></symbol>
<symbol id="terminal" viewBox="0 0 24 24"><rect x="3" y="4" width="18" height="16" rx="2" fill="none" stroke="currentColor" stroke-width="2"/><path d="m7 9 3 3-3 3m5 0h5" fill="none" stroke="currentColor" stroke-width="2" stroke-linecap="round" stroke-linejoin="round"/></symbol>
<symbol id="globe" viewBox="0 0 24 24"><circle cx="12" cy="12" r="9" fill="none" stroke="currentColor" stroke-width="2"/><path d="M3 12h18M12 3c2.5 2.5 3.7 5.5 3.7 9S14.5 18.5 12 21c-2.5-2.5-3.7-5.5-3.7-9S9.5 5.5 12 3Z" fill="none" stroke="currentColor" stroke-width="2"/></symbol>
<symbol id="menu" viewBox="0 0 24 24"><path d="M4 7h16M4 12h16M4 17h16" fill="none" stroke="currentColor" stroke-width="2" stroke-linecap="round"/></symbol>
<symbol id="arrow" viewBox="0 0 24 24"><path d="M5 12h14m-5-5 5 5-5 5" fill="none" stroke="currentColor" stroke-width="2" stroke-linecap="round" stroke-linejoin="round"/></symbol>
<symbol id="book" viewBox="0 0 24 24"><path d="M4 4.5A2.5 2.5 0 0 1 6.5 2H20v17H6.5A2.5 2.5 0 0 0 4 21.5v-17Z" fill="none" stroke="currentColor" stroke-width="2"/><path d="M4 18.5A2.5 2.5 0 0 1 6.5 16H20" fill="none" stroke="currentColor" stroke-width="2"/></symbol>
<symbol id="warning" viewBox="0 0 24 24"><path d="M12 3 2.5 20h19L12 3Z" fill="none" stroke="currentColor" stroke-width="2"/><path d="M12 9v5m0 3h.01" stroke="currentColor" stroke-width="2" stroke-linecap="round"/></symbol>
<symbol id="external" viewBox="0 0 24 24"><path d="M14 4h6v6m0-6-9 9" fill="none" stroke="currentColor" stroke-width="2" stroke-linecap="round" stroke-linejoin="round"/><path d="M20 13v6a1 1 0 0 1-1 1H5a1 1 0 0 1-1-1V5a1 1 0 0 1 1-1h6" fill="none" stroke="currentColor" stroke-width="2"/></symbol>
</svg>