<svg xmlns="http://www.w3.org/2000/svg" width="1440" height="930" viewBox="0 0 1440 930" role="img" aria-label="SuperServer index page preview">
  <defs>
    <linearGradient id="bg" x1="0" y1="0" x2="1" y2="1"><stop stop-color="#070a12"/><stop offset="1" stop-color="#0b1020"/></linearGradient>
    <linearGradient id="accent" x1="0" y1="0" x2="1" y2="1"><stop stop-color="#5da9ff"/><stop offset="1" stop-color="#a985ff"/></linearGradient>
    <radialGradient id="g1" cx="0" cy="0" r="1" gradientTransform="translate(150 0) rotate(42) scale(620 420)"><stop stop-color="#5da9ff" stop-opacity=".22"/><stop offset="1" stop-color="#5da9ff" stop-opacity="0"/></radialGradient>
    <radialGradient id="g2" cx="0" cy="0" r="1" gradientTransform="translate(1270 30) rotate(140) scale(540 380)"><stop stop-color="#a985ff" stop-opacity=".20"/><stop offset="1" stop-color="#a985ff" stop-opacity="0"/></radialGradient>
  </defs>
  <rect width="1440" height="930" fill="url(#bg)"/><rect width="1440" height="930" fill="url(#g1)"/><rect width="1440" height="930" fill="url(#g2)"/>
  <g font-family="Arial, Helvetica, sans-serif">
    <g transform="translate(90 52)"><rect width="43" height="43" rx="14" fill="url(#accent)"/><path d="M12 14h20M12 22h14M12 30h20" stroke="#fff" stroke-width="4" stroke-linecap="round"/><text x="60" y="28" font-size="17" font-weight="900" letter-spacing="2" fill="#f4f7ff">SNYT HOSTING</text></g>
    <g transform="translate(1160 58)"><rect width="190" height="36" rx="18" fill="#70eda8" fill-opacity=".08" stroke="#70eda8" stroke-opacity=".25"/><circle cx="20" cy="18" r="5" fill="#70eda8"/><text x="36" y="23" font-size="14" font-weight="800" fill="#bdf8d5">Server online</text></g>
    <rect x="90" y="128" width="1260" height="300" rx="30" fill="#131a2c" fill-opacity=".92" stroke="#ffffff" stroke-opacity=".09"/>
    <text x="140" y="184" font-size="14" font-weight="900" letter-spacing="2" fill="#4de2d1">SNYT SUPERSERVER • UTILITY.SNYT.XYZ</text>
    <text x="140" y="272" font-size="70" font-weight="900" letter-spacing="-3" fill="#f4f7ff">Your web stack is ready.</text>
    <text x="140" y="322" font-size="20" fill="#b8c2db">A validated PHP-FPM stack is serving this domain. Replace this page when your application is ready.</text>
    <rect x="140" y="355" width="190" height="48" rx="13" fill="url(#accent)"/><text x="235" y="386" text-anchor="middle" font-size="15" font-weight="900" fill="#fff">Open phpMyAdmin →</text>
    <rect x="344" y="355" width="205" height="48" rx="13" fill="#ffffff" fill-opacity=".04" stroke="#ffffff" stroke-opacity=".13"/><text x="446" y="386" text-anchor="middle" font-size="15" font-weight="900" fill="#dce5fa">SuperServer project</text>
    <g>
      <rect x="90" y="452" width="300" height="142" rx="20" fill="#11182b" fill-opacity=".94" stroke="#ffffff" stroke-opacity=".08"/><text x="116" y="486" font-size="12" font-weight="900" letter-spacing="1.5" fill="#96a1bd">PHP RUNTIME</text><text x="116" y="535" font-size="22" font-weight="900" fill="#f4f7ff">PHP 8.5.4</text><text x="116" y="564" font-size="14" fill="#7f8ba8">FPM/FastCGI • 47 extensions</text>
      <rect x="410" y="452" width="300" height="142" rx="20" fill="#11182b" fill-opacity=".94" stroke="#ffffff" stroke-opacity=".08"/><text x="436" y="486" font-size="12" font-weight="900" letter-spacing="1.5" fill="#96a1bd">MEMORY</text><text x="436" y="535" font-size="22" font-weight="900" fill="#f4f7ff">1.2 GB / 8.0 GB</text><text x="436" y="564" font-size="14" fill="#7f8ba8">15.0% currently used</text><rect x="436" y="576" width="220" height="7" rx="4" fill="#ffffff" fill-opacity=".07"/><rect x="436" y="576" width="54" height="7" rx="4" fill="url(#accent)"/>
      <rect x="730" y="452" width="300" height="142" rx="20" fill="#11182b" fill-opacity=".94" stroke="#ffffff" stroke-opacity=".08"/><text x="756" y="486" font-size="12" font-weight="900" letter-spacing="1.5" fill="#96a1bd">ROOT DISK</text><text x="756" y="535" font-size="22" font-weight="900" fill="#f4f7ff">19 GB / 128 GB</text><text x="756" y="564" font-size="14" fill="#7f8ba8">14.8% currently used</text><rect x="756" y="576" width="220" height="7" rx="4" fill="#ffffff" fill-opacity=".07"/><rect x="756" y="576" width="47" height="7" rx="4" fill="url(#accent)"/>
      <rect x="1050" y="452" width="300" height="142" rx="20" fill="#11182b" fill-opacity=".94" stroke="#ffffff" stroke-opacity=".08"/><text x="1076" y="486" font-size="12" font-weight="900" letter-spacing="1.5" fill="#96a1bd">SYSTEM LOAD</text><text x="1076" y="535" font-size="22" font-weight="900" fill="#f4f7ff">0.14</text><text x="1076" y="564" font-size="14" fill="#7f8ba8">1m / 5m / 15m: 0.14 • 0.11 • 0.09</text>
    </g>
    <rect x="90" y="614" width="760" height="244" rx="22" fill="#11182b" fill-opacity=".98" stroke="#ffffff" stroke-opacity=".08"/><text x="120" y="653" font-size="17" font-weight="900" fill="#f4f7ff">Runtime details</text>
    <g font-size="15"><text x="120" y="698" fill="#96a1bd">Domain</text><text x="805" y="698" text-anchor="end" font-weight="800" fill="#f4f7ff">utility.snyt.xyz</text><text x="120" y="736" fill="#96a1bd">Operating system</text><text x="805" y="736" text-anchor="end" font-weight="800" fill="#f4f7ff">Ubuntu 26.04 LTS</text><text x="120" y="774" fill="#96a1bd">Web server</text><text x="805" y="774" text-anchor="end" font-weight="800" fill="#f4f7ff">nginx/1.28.3</text><text x="120" y="812" fill="#96a1bd">Connection</text><text x="805" y="812" text-anchor="end" font-weight="800" fill="#70eda8">HTTPS secured</text></g>
    <rect x="870" y="614" width="480" height="244" rx="22" fill="#11182b" fill-opacity=".98" stroke="#ffffff" stroke-opacity=".08"/><text x="900" y="653" font-size="17" font-weight="900" fill="#f4f7ff">Deployment notes</text><text x="900" y="699" font-size="14" font-weight="800" fill="#f4f7ff">Document root</text><text x="900" y="724" font-family="Menlo,Consolas,monospace" font-size="13" fill="#c6d8ff">/var/www/html/utility.snyt.xyz</text><text x="900" y="770" font-size="14" font-weight="800" fill="#f4f7ff">Add another domain</text><text x="900" y="795" font-family="Menlo,Consolas,monospace" font-size="13" fill="#c6d8ff">super-sdomain</text><text x="900" y="838" font-size="14" fill="#96a1bd">Sensitive credentials never appear here.</text>
  </g>
</svg>
