<svg xmlns="http://www.w3.org/2000/svg" width="1280" height="370" viewBox="0 0 1280 370" role="img" aria-label="SuperServer installer flow">
  <defs>
    <linearGradient id="bg" x1="0" y1="0" x2="1" y2="1"><stop stop-color="#0b1020"/><stop offset="1" stop-color="#11182b"/></linearGradient>
    <linearGradient id="line" x1="0" y1="0" x2="1" y2="0"><stop stop-color="#4de2d1"/><stop offset=".55" stop-color="#5da9ff"/><stop offset="1" stop-color="#a985ff"/></linearGradient>
  </defs>
  <rect width="1280" height="370" rx="28" fill="url(#bg)"/>
  <text x="54" y="55" font-family="Arial, Helvetica, sans-serif" font-size="25" font-weight="800" fill="#f4f7ff">Guided setup — all choices first, installation second</text>
  <text x="54" y="87" font-family="Arial, Helvetica, sans-serif" font-size="16" fill="#96a1bd">Review the complete plan before SuperServer changes the machine.</text>
  <path d="M105 168H1175M1175 168V276H105" fill="none" stroke="url(#line)" stroke-width="4" opacity=".55"/>
  <g font-family="Arial, Helvetica, sans-serif">
    <g transform="translate(54 120)"><rect width="176" height="96" rx="18" fill="#151d31" stroke="#ffffff20"/><circle cx="30" cy="30" r="16" fill="#4de2d1"/><text x="30" y="36" text-anchor="middle" font-size="16" font-weight="900" fill="#071018">1</text><text x="22" y="67" font-size="16" font-weight="800" fill="#fff">Domain &amp; SSL</text><text x="22" y="87" font-size="13" fill="#91a0bd">Email or no-email</text></g>
    <g transform="translate(251 120)"><rect width="176" height="96" rx="18" fill="#151d31" stroke="#ffffff20"/><circle cx="30" cy="30" r="16" fill="#55cedd"/><text x="30" y="36" text-anchor="middle" font-size="16" font-weight="900" fill="#071018">2</text><text x="22" y="67" font-size="16" font-weight="800" fill="#fff">Web server</text><text x="22" y="87" font-size="13" fill="#91a0bd">Apache or Nginx</text></g>
    <g transform="translate(448 120)"><rect width="176" height="96" rx="18" fill="#151d31" stroke="#ffffff20"/><circle cx="30" cy="30" r="16" fill="#5da9ff"/><text x="30" y="36" text-anchor="middle" font-size="16" font-weight="900" fill="#071018">3</text><text x="22" y="67" font-size="16" font-weight="800" fill="#fff">PHP versions</text><text x="22" y="87" font-size="13" fill="#91a0bd">8.1 through 8.5</text></g>
    <g transform="translate(645 120)"><rect width="176" height="96" rx="18" fill="#151d31" stroke="#ffffff20"/><circle cx="30" cy="30" r="16" fill="#768fff"/><text x="30" y="36" text-anchor="middle" font-size="16" font-weight="900" fill="#071018">4</text><text x="22" y="67" font-size="16" font-weight="800" fill="#fff">PHP modules</text><text x="22" y="87" font-size="13" fill="#91a0bd">Essential, all, custom</text></g>
    <g transform="translate(842 120)"><rect width="176" height="96" rx="18" fill="#151d31" stroke="#ffffff20"/><circle cx="30" cy="30" r="16" fill="#927dff"/><text x="30" y="36" text-anchor="middle" font-size="16" font-weight="900" fill="#071018">5</text><text x="22" y="67" font-size="16" font-weight="800" fill="#fff">Components</text><text x="22" y="87" font-size="13" fill="#91a0bd">Database, cache, tools</text></g>
    <g transform="translate(1039 120)"><rect width="176" height="96" rx="18" fill="#151d31" stroke="#ffffff20"/><circle cx="30" cy="30" r="16" fill="#a985ff"/><text x="30" y="36" text-anchor="middle" font-size="16" font-weight="900" fill="#071018">6</text><text x="22" y="67" font-size="16" font-weight="800" fill="#fff">Security</text><text x="22" y="87" font-size="13" fill="#91a0bd">CrowdSec options</text></g>
    <g transform="translate(842 250)"><rect width="176" height="82" rx="18" fill="#151d31" stroke="#ffffff20"/><circle cx="30" cy="28" r="16" fill="#927dff"/><text x="30" y="34" text-anchor="middle" font-size="16" font-weight="900" fill="#071018">7</text><text x="22" y="63" font-size="16" font-weight="800" fill="#fff">Review plan</text></g>
    <g transform="translate(645 250)"><rect width="176" height="82" rx="18" fill="#151d31" stroke="#ffffff20"/><circle cx="30" cy="28" r="16" fill="#768fff"/><text x="30" y="34" text-anchor="middle" font-size="16" font-weight="900" fill="#071018">8</text><text x="22" y="63" font-size="16" font-weight="800" fill="#fff">Install</text></g>
    <g transform="translate(448 250)"><rect width="176" height="82" rx="18" fill="#151d31" stroke="#ffffff20"/><circle cx="30" cy="28" r="16" fill="#5da9ff"/><text x="30" y="34" text-anchor="middle" font-size="16" font-weight="900" fill="#071018">9</text><text x="22" y="63" font-size="16" font-weight="800" fill="#fff">Validate</text></g>
    <g transform="translate(251 250)"><rect width="176" height="82" rx="18" fill="#151d31" stroke="#ffffff20"/><circle cx="30" cy="28" r="16" fill="#55cedd"/><text x="30" y="34" text-anchor="middle" font-size="16" font-weight="900" fill="#071018">10</text><text x="22" y="63" font-size="16" font-weight="800" fill="#fff">Ready</text></g>
  </g>
</svg>
